<mxfile host="app.diagrams.net" agent="Mozilla/5.0 (Windows NT 10.0; Win64; x64) AppleWebKit/537.36 (KHTML, like Gecko) Chrome/138.0.0.0 Safari/537.36" version="28.0.5">
  <diagram name="Pagina-1" id="7-YBbzkXeQKq0q0XrftI">
    <mxGraphModel dx="772" dy="390" grid="1" gridSize="10" guides="1" tooltips="1" connect="1" arrows="1" fold="1" page="1" pageScale="1" pageWidth="2339" pageHeight="3300" math="0" shadow="0">
      <root>
        <mxCell id="0" />
        <mxCell id="1" parent="0" />
        <mxCell id="b5e-A_3ldBvZxfMVsBDQ-1" value="&lt;font style=&quot;font-size: 148px;&quot;&gt;?&lt;/font&gt;" style="text;html=1;align=center;verticalAlign=middle;whiteSpace=wrap;rounded=0;fontColor=light-dark(#1768BA,#2B82DA);fontFamily=Times New Roman;" vertex="1" parent="1">
          <mxGeometry x="510" y="80" width="80" height="130" as="geometry" />
        </mxCell>
        <mxCell id="b5e-A_3ldBvZxfMVsBDQ-3" value="" style="rounded=0;whiteSpace=wrap;html=1;labelBackgroundColor=default;strokeColor=#FFFFFF;" vertex="1" parent="1">
          <mxGeometry x="490" y="180" width="120" height="60" as="geometry" />
        </mxCell>
        <mxCell id="b5e-A_3ldBvZxfMVsBDQ-4" value="" style="shape=image;verticalLabelPosition=bottom;labelBackgroundColor=default;verticalAlign=top;aspect=fixed;imageAspect=0;editableCssRules=.*;image=data:image/svg+xml,PHN2ZyB4bWxuczp4bGluaz0iaHR0cDovL3d3dy53My5vcmcvMTk5OS94bGluayIgeG1sbnM9Imh0dHA6Ly93d3cudzMub3JnLzIwMDAvc3ZnIiBzdHlsZT0iY29sb3I6IHJnYigwLCAwLCAwKTsgZm9udC1zaXplOiBtZWRpdW07IGZvbnQtc3R5bGU6IG5vcm1hbDsgZm9udC12YXJpYW50LWxpZ2F0dXJlczogbm9ybWFsOyBmb250LXZhcmlhbnQtY2Fwczogbm9ybWFsOyBmb250LXdlaWdodDogNDAwOyBsZXR0ZXItc3BhY2luZzogbm9ybWFsOyBvcnBoYW5zOiAyOyB0ZXh0LWFsaWduOiBzdGFydDsgdGV4dC1pbmRlbnQ6IDBweDsgdGV4dC10cmFuc2Zvcm06IG5vbmU7IHdpZG93czogMjsgd29yZC1zcGFjaW5nOiAwcHg7IC13ZWJraXQtdGV4dC1zdHJva2Utd2lkdGg6IDBweDsgd2hpdGUtc3BhY2U6IG5vcm1hbDsgdGV4dC1kZWNvcmF0aW9uLXRoaWNrbmVzczogaW5pdGlhbDsgdGV4dC1kZWNvcmF0aW9uLXN0eWxlOiBpbml0aWFsOyB0ZXh0LWRlY29yYXRpb24tY29sb3I6IGluaXRpYWw7IiBvdmVyZmxvdz0iaGlkZGVuIiB4bWw6c3BhY2U9InByZXNlcnZlIiBoZWlnaHQ9IjEzMiIgd2lkdGg9IjEyOSIgdmlld0JveD0iMCAwIDEyOSAxMzIiPjxkZWZzPjxjbGlwUGF0aCBpZD0iY2xpcDAiPjxyZWN0IGhlaWdodD0iMTMyIiB3aWR0aD0iMTI5IiB5PSIzNzMiIHg9IjcwNiIvPjwvY2xpcFBhdGg+PGltYWdlIGlkPSJpbWcxIiBwcmVzZXJ2ZUFzcGVjdFJhdGlvPSJub25lIiB4bGluazpocmVmPSJkYXRhOmltYWdlL3BuZztiYXNlNjQsaVZCT1J3MEtHZ29BQUFBTlNVaEVVZ0FBQUlFQUFBQ0VDQU1BQUFDQXM3alJBQUFBQVhOU1IwSUFyczRjNlFBQUFBUm5RVTFCQUFDeGp3djhZUVVBQUFCbVVFeFVSUUFBQUJOVGpCQlFpeEZSaWhGUmpCRlFpeEpRaXlCZ2dCRlFpeEZRaXhKUWl4RlJpeEZSakJGUWpCSlJpaEZSakJKUWpCRlJpeEZRakJGUmlSVlZpaEJRaWhGUml4QlFpUkpTaVJGUWl4QlFpeEZSaXhCUWp4QlFoeEZSaXhCUWloRlJpeEZSaXZSbXEzMEFBQUFpZEZKT1V3QW9RSGlIdjQ4SXovK0FXSmZmU01lZjk2OW9HRENuVURqdmNPY1FJTmRndDJ2RFFoSEpBQUFBQ1hCSVdYTUFBQTdEQUFBT3d3SEhiNmhrQUFBVGdrbEVRVlI0WHUxYjJaS2p1cklWQWlHV0FJT1l4WHovL3lkdnBDUW1WMVYzMTk3VkorSkVuUFZRZG1HTVVqbG5LczNZUDBYQXcwakU3MWYvWTVBSmhFcDVsdDh2cHZIci91L2Z4YXRBU1lROEtHQXhkRlUzajBzL0N0bGU3N3NleGYwemh4cHFpRXgzdSs4bkljZnA0dkU4TVRNeHhwcm5oaXUwak0yWjVvK3JQNFVTNHZxbkxsbUNtYkZ3dk44aXRSTktZZjZLSkVyUUJqMUV6eXE4ZUowOGJJRmIzV0NzaHlOc3VILzQ3NkVTVk1mN0JhTkswS2swT2k4Ull2VDJOZkIzUnNtUDJNYnNoUnFxNUdTQ0VpRVBhYU15dTkrNjZ0bStCbDVnVWtQOGE1V1lsVUZvMzIxbGVqSWg1NHkxc0JLNDZlSnlhTXJMU3lORXlZUHo0MytJV21tNHBWNmxuTFJianBNWnpOanBmYnhkOTNyeHN4ZzF2VFRhMy84dkVZc2NwV1NNQ3pZNldsaG1lVzlXWXZSMFVWREJiWGpXazdUZjlMZi9XelJtV0xGTHRoVE1NMEVhRXU0OGFSV0pKRCtWTGZDMnlFckhpMGIvVzZOYy9Hc2N6d21TdWNtWlowS0VyR1d6RUpIaU4rK25WaFRFZzZaQzUxbHdPQXV1L3BFNmNPUDF2REdOM0xFdUUvRmN2M2kvcS9IVEJ5N2pia1FCN2VUU2VGa3daUUNnK3pZL3RtckxyVDRSRTVnc2tZTTBBSWt6K2Erd25HenhMSkFka2xReVZ1ZVh3dndSUXJJblo5M0VCR0k5SkV0L3MvNE5MUndMS2lUdU1ZMzREZ215dEQ3ZzVVa29TZm9qRnZiSG5PU3FjQ3pva2Z1SE1Lbi8zRVBPdTNNcGZlRWsyVm9UMkk1SC9RbkdDVmFUYysrb2JkVDRZd2F5TWs2Z3JIZTFUb2V4YWxlZjZ0NHZJQlY5ZDc1bEVYSDB1T0UzV0hKc3JFMWExUlBuNS96aDNodk9sVVhOdVd6NXBtSmhFYW53SGcySmZ3T3V3UEVkRmhMakRaU3dZbDliOXJxdDM4Y3JHZGNUQ1JIZ3JvdjZ2cExVbG9MMGR1bVA4ZEp3NjVhclV3YUxaZ0xXTE9VOGpjb0owQ0lhK1kyOElDMG5KTGY3MlU0aGhNWFZTZGJ3eUdsK2lRMlQxYVZTM0RaVlltc1lhK3FFdHR0OXFodmJRK0ZhUTFhMVlUM3VuZldmNXkwSzY4eFk2VnlzeDlveDF1L0FHdkV0dDl2N2dCWVBubk9kc2xicnFIUDdtRHNrOTQ4L1loVFZhYlVseEx3L3cxczJqVGx0M3prSVRscXBJaUVzUzRCSmlGM2xieUY1V012Y1JXdjZKMDk4N3ZBVk1uclF1WWNkNXZpcVJ3eUlsTW1kc3FVVVZXZkpLY2dNQ0VMUS85V2RhUzdKUGd3aU5HbjJhNit3bFZLR0Y1dDYvYng3U0FCTjlMV1VOeFhBdEN2KzJIRmpOSEJMR1J5a282a1JSY0J5L1ViZ0E0RlY0L2lzZzhxSDBzZ00wN2l0cEVtTHArRE9JVTdvZ1Z5c2NIYjhocGVKSkJ0Y3B2Y0ZGYkt3TlFuM2pqQjRibVVXS0dmYWZrbTZqWDFoYzJFWW0zdlZGWmRuc0tsaXFNMWJDSmpqSnJiWEZPaXAvSXZrS1ZxQlNMSXhkeTd1YVRaejdwK2FKSXcxU21sQjhiS3pPcGlVU2luT001U3hYWUFGeVhzVVVwNHZLOVU1VEhwZjg0NmFEUk1LUHZuZFBNc2hZVnpnbjBuMUZ0TFplVGFBaUd0UHFPUUthK0s5OEp5OFYyNHVOcnQwZWluVy9ETTVFZVlLK0RTQWpJY0tOeUxLVENKWmhXNG9FN282cDZvNjVGRGtQcUdmMSttNVJtTjFacVI5YlNaa3dkZCtxZFpXM08rWXV0cy9JMTRzRTBZSExGbWpZL0dNRjdleWpnMVBIbm9JTEhPWmY3MjZSYkJpSGRpYlFRMU92aDRCOHF4bkxUS1hBdTR5U1JvV3ZLWmJhY3RZOHZqUFlVWXk1TjQ3L2dJeWcxNGZ5aHEwL09GcWExbzNYb2pyRzFjck5ESTJrays4M2NNNndSYitsaU52eUgwZSt3bVdhaEtIL3ZiNkZ0OWV1MlV5eFlnRE01ZE5CWVBLc1pNTG1FaFh2TDd6ZllDeERsUGNuVnFGNUNTSnYwbXBzZnowRjZVNTcyc0tUTEZTcGNhYXFWMEkxWHZhWGlTclZObWV6WndXVjJtL3ZOVEdlYjBDZThwNW1PUGl1dFR4YldjK21UOFFoNHlseHRlK3k4a3BiblJvYnlRaklWVUhET1Z2Wk9EQlFzN0FER29GeE9yU1F1a0NGK0Z3U3FGZWo5cG52cHpFa3VtSFIyV05OYUxXUGVaQ2EvSlR2VXRyajB0YWtjbnpUR3VWYXpVdm1wU2h6b0dLMkZOaGpWOEQ1M3pTNXhjSGM1ZWdSVnNDcG51RTZkaEpLM25hOEpMbkYwbHk5Y2xTakVGQTAxNXBTeFhJVEJyckczTmZNVktTN2pobDBScWZjM3Z3SFpqQ21WR3ljNkRScURndGNyK1JzZDM3UVlmZVd5U0hGYzFpa3dRNXdmWVhGcjJ6ZmpyRHFuZ0krWFhTTThRc1RZQjhldzlOSTZXWjY5WS8zV0g2bEJRenppdHRzUElZU2ZmcUNRS0dWQ1hDd2xwdDNKMVNQNThVNjBPMUV3TVVuMlFJb1dRdlVyV0lCSFk0OUdaNjZ4aDJ6dDQ3VjBXVXhqb0czVk5vbXRtTFpCTEQ2ZTN3bG9iSS9IaFViNW50RWJ5UlF1cXB5MkE4bkZGbzVYeERDQkpjU0duQk9QV2lZTE5PSWd4bG9GQ3lCdU1ZY3Jqd1R4WGVBd3FISjA3T1Q0WWNubVVYWm10TFhqL2s5UERFVnB3anFVeUNyUVpDa3pIYVBrek5PeGpKZENhd1lyVzdUOTRVaXBWbkMrcXVmdnl6UGxjNkhiZjIwTzlaYlRKSjZoSGh0WnVFWEZBRWxUaVBpWUJWUms5QVBTV2tRQi84M2RHQ2VtTDBHdHJlUHp6SkVzV0dydS9WVFd0ZnlOaGFwR2hGMGFpTnNUMG55K2lJZ3A0dFltK0JxTUxjVFBudFMzV1ZibXNlZkJyMEZ4KzlvcnRDSEp3UEVESjFlbXF2eWhscURZTzVNclRFQUlUcGhHNE1HOGZrQUppQVYrSzlrYVRPaFNSM3Y3YStlSHJnRlNVK2JkM3phUHNRc2tOU3BvVnpNYldVOFRpdjlpSzNnN0lHQ3M1ZU9jaEpGenBsM0JJcWR5U1lZSTd0MXRpRHBjVFFFdjNiMVE2bFA4RzRhM3FZMjd5SnFoeEl1dkN1d01MYlQyTm9YMWEvNXJZQ0RCdVl6K05vZDZhZHFXTE5kMEJNTUdLWXllSElrQ2l1YUkyRG5Ga2Z1bEdHRzlXY1dPTmVidGJ3WnZKcGtvZGxndjBXeGc2TmJMWnNtNHMxWUV1K1praU1wQjJqaE9yWm9MYUZzWGtyeWNVYWphalVqSlY2U2dLZHRETEVGcWp4M05XWnY1QUY2YXEySDh4dnlyNTBaNk9hUTk4NXNoamtNQzBwUnNveWFFM2EvOFFFcE9TemRxQ2p5aHUzMW9GVm1xTlVtUkdmTW0vTW0rTmc2L0daMGpwWm1zM0picEdzQ2J0NllSa0ttRmhqQ29yRGJaekk4NEZyWkIwU0l5akFxMU8vWlJYejJKZ3pRNy9pSDc4dUhpZ1BVeENyM1laTmVGdDlCQmFGRjN5VitxSG1zS21iRmJ3NE04VGQ5dEdzU1JWWDZucEZtOVI1WGRjNmR5aVBkSEN0V0JPcVdwY05DeElYQ0pZeXFwSnFraHhyZlczd0FpOVZnWkJWZWJadXBXMVpOSUFZNWxwWEFWV1grZ1BSSGxMZi9qa2JEZjcybEN6Y2RFUithMGlCRU5LMWQ5WjV6QlBJVlZzYlNBTFdKQ2FpdHo0N1dCK25JVGUwd05vcGJxMWdPNHJXNW1CWk1KWmp3MkxrS3d6eTJPREZwQy9OUG1LQVdKaUVqaXJFWktwNllFdXREait3bjNyL2xxL1hrNVBzUkkySXM5UHdGbDc3VE1STlRPNm9EZ1ZGbnlZU2V4U2RLcldWV1pUVkxNOUYxSkwvU0dSVHEvUzVVSHhHd25KL25BZkdMV084amdWUmNkcFBlbWYwVEF2SmhMTVhKb3pKVkJ3OGFBNVRhank5dTFueHdrcGV5QnEyOWN0SHJhNXMwVW9vSjZ6cU1zT1RVS3N1SHFGelpiSFZob2lxYUdMOUFwZ1k0MklwQ082dGZROGhCcFNKN2NLVWRGTmxOOUlhUzNGNUpnMVJQNmVkTGg1OXYzY29UTFpYUUVtS1hLRXBpOXVvUndzVUxFWFBKS1ZVNjlrdkQxZm9uYk11Y2FhMzJNUEIzTUEyalNwUWFIN1p5eGIyZGN0S1V6a2VmUVlGSkdtWUEvbUxhcVp5TGF6NmplZ1FOcFFDeExSQ1NlOEkxVzR3NVZOVG8yZTV0b0d5bStxcXpLanJWcEtTeGFXK0tMRFlSc2I2TWkvZmZhdUhRa3E1YTJFbXdOaSsxWUthZFozUmVKV1VjVldEQWJhUnpoeEliNE1jT3M1U21aaW1CS0pWTWtGbXBSQVpJTWFlWThyVWt3S3UyQkxsTHVaWk5QVWVYK1FvTUxZc0xEWXpKd1hzcWUyaHFIbVJJTEF0QWhudVFxeUpDNkJCVEhWVDJjM1U0ckppNkIwRm1hSFV3dWtOMjk0b3FIWlNxNFU0TzNGcTBqajc5U0FLenBmRk9nZEVBZkp4d0pZblR2b3kyM2F2dXk4Vi81LzFLSzNKTWwwblNGbEJycm15VW1yZFBpOEtYaS9Xa0lnVFZ6YVVJNzNFeUZOS2Z6MFU3R2N1TzNZT2N1cVlRTFZNZTNxY3FYMUVDNlJURnhuVE1FT2V2TEJ1OE9WTSs2S2duenBBbjUwNlFkZGJVR2ExbkJaYnU3djlsMWJhVDFHd1dTSE1rSHpwNENtUnJxQ3dCNnloME9VTEYvOFV2eDBiK3BIYkhNWmhKeGJ0THRhZFZXNS9rRzFmS1BGdzlVb0Y4cytYdml4dmZmdlllbGRKeWxtZjdBL2R4bUluV2RMY1o2Y3RLcTB1V0s2Zm5jakI5VXhhcDBNMUdVTkVncG5EVUY0WkgyUFJtejBQMkdwRjNOM0lZSHpoUXZwSVd6aUZ0enladUJEbmJIazBxL01lSDVta1kzZ0xGWWtjSXJRRWVyRmFkTjJ1WW5YNVVsdE0wc2xqZ2wwRmZrM2ZVYnEwN0IyRGNMWGt2SXNyci9JSnB2K3lzY2NvRSt4aHdYQ2pvS1dVTTc4eURDc3ZHUU9HbXR5dTFKWCtXWjlGNTVvL0xQUU9mN3RqWUtOZDNqRFlNN2pHandONDhMc2cxc0wyRWtyaVJFRDVpdFU3cXcyZW40UXJ1Ry9tTENqZjRldGtaeFB4MlJDSnFCTlF2RmVGSnlnVGs2NTBwRFZYcTEyalU4VGJ5Y2V0VHphZng1SHZHSjNwV0cyK1VjK0VYbGg5bzF1bS9CWm5POTBjSis4RU40OVNPVzJ3NnV5ZzQ0djVYKzdtT0o2a1FqYTltVitnaFp6ZEFScGpBNThwclRDOXoyUWJUVW5hN1F3bHo4L2pOcGFkMldCZ015SlJLcjZ3eGpmeVAyTDJqWmNZRGV2dVNsd2p0bHUxb2FRMFFoaWg4ODVaWll4Mk1mZWp1UkVCUzMwYmducnlEdjJlcXQyZkdTYVBvdUlCMGlsbjRPellza09DcE1LOXkzeWl4eFJOai9TT09OblpLcGZObHloREo0NmhWMVh5WHVmZmNNVFNxV0pudVdBUlF1ZlhGM3YxcXIxeHRvYXkwMGNMYThGMmlNeTcxM2Y4WXBhdTlWbXJRcHMvS0xEcDNuNjJYeU94dWtjUEpsOWtVRDAwYTZGMmkvdDRkNng0eHhGZFAwUHVuRkdqcy96dVJPZXBZTTBvS3dvL3h5WDZFK3A4V1ZvV1B1eTd4Wlk0UzVENjAwTys1ZDBVWkxxZlprSTZTTWkwRGJUdTg3S2N3TmtHeFViWGd2Um9CSXBtbVhZbWMzU1hsMDVSZTQwKzlKRzgrdkdHcGVadHdLL056RTNGL01RVHhmeXovVEhEN0xUSFhVdldSTk01Y1JVYUhSS3RDMk5OcHkrZkdlbmQ5NCtLU3orS3l3YzE5MFBycGw2bkhmZjVuY3FYMi9GVnBXMStKODRueWRFZ0VWcWIxWWtrOFk3L3NydFYrNWhnRHlnZEZwcmtlY08yc2I1RGxiTDkwVVE5SnV3YXFnWVphL1l0T3hyRW5aZlFiSk5DMEpDWVBXZDNuM0lVeWs1TURLZHBWRmNyamI2U1U1bDBRNk9ubFFKdmVwOUE5TTA3UWszdFFwdDhrT1ptb3U2dUtiM2RjSFc0Z0EwaXJVbU10UzhVTWhmMWFZVkxtWXNoN1RTd0VvMW51Nyt5TEpxbnMvdnJjRENCQ1poTUlHNnNBS2w1MTgxTU9tbU9tSy84THlLR3VMY2pNbFU0T216UXZxUkxhOGlVbnJLcWMzcXd0K0V5YzJvckwzTXEvQmNYUTVXSHZ5aU16WW9qMS9pdkp0WmFRdTFaOGN3UCtUQkZ5YmYzME1QSGZnZWJOMnFMSGVwcFQ2WUhmLy9SWmJUNjQvZnc4by9ndmF6OXRVQ3ZLZWNsYVZpbDFhdjBLdGNqazlJUjBlUGc2U0ZPd2kwam1idUhqNUNKMDNoNTcwcEhoeFZIN2tOYkxQcE51cG8vbytUUmRuYjlhaFZNYnQyTXBLckJJcndkMUhGZFhBYW9IaTQ1dEFvL2xHWVhseE9XcSsvUFNuZUV5bEhaSWtQdGFZMXFSZVdXYlZaMHlKYlFSb0RhRHpPcGcvV0J2aUp3azZUcXNyZmxFVVAwTkM5aG5vY0xrN2R3TlJ3TnlkYjJGMTkrTjNTNFdEUnpoWXI0dFJuVFU2Mk11d01lVHVkMmFCT2grem9VN3FoMlhYcXUzRWpMamdRdFJOUXN3ajlzQUt4UFVscEhmV0lQRVdWeE5rQUtIYkIyUFZLeGMzTFRobWpIdEtWK1pKY0VxWkZjRFlYdFNpWG42Y2c0YUpPMm95VUdXV0xMN1RER012bVJpMWtnbXZ5WldxdXgra0VlWXU3TjlYT2JNalkwYTNJZDRubVU5K2I3Y0RzM1AyYVFxVzlkMlJTWXNvQ09qa0tyTnN3eDJiSXpuWFRLVWhpWDNiZlpXUVJMWXNnSkVnM04zbUtQanRiRENYN0xBZnJwbnV2WnFXRENuTGlqdDk0MU9pVlpnR3VpOEFJRmZhVDhJUThyVCszM1E3TUhuQUdKZ0hqelphWFE3RURtc3c2TDZteGNHWHVPdXFEUXBsWTVqS3QrdWNCRUN6WWRKcnVlTEU4UGRIaVBBdzBWbnRhSnorYXJORDNVU0FZbWI2eVR3bk5ob1pNMVlrbzdhR0MzZGpsdkNTWTZoNkZBR1VsS2E0ZzVubTBiamRpK3dUODUvYVNDSWd3RktOSS9JWGVVTktHWG1DRkJJU0JvOUlBMHhYclcxVkl5VHBhM0k1SjRRajA1RDFCL1FvQkZFREM2K3gzcFBFZDJ4dVlqSW1BVjBDOTdBSzRvaXZadG5TWEE1QXg0eStHRHpHWmdPRlBvV3RhTHJ3aWdCT3R0MU1xQ1Q5UEhZU2FQSUJNaXMxUkhLRkpxR1ZLdTc5THVac3lQMDVyenBOM09kdGs2OTNPNHFaUVBLRCtkUUhsSFNzcmNxWmUzNTlRS3duOUdKdW9lc1NqMXk0Ymw1MmlvaS9sYkxGZnZkMGt6ZytsS3VqYURaMjN4YmFTZmFNY0h1SkVVeWVzeUIzUjNsVWpCanBXYlQ1UHluMFNyWWt4dUduQ3E3bU9wMXRXS0JQbCs2MUg5UEtnN1FyT2hRcW4rd1MrcERDcWFWS1FCUWVwUC9pMG8zSHBHRjVwd2NqSERvbldOaTcrRG95SjRZT2h3Vy8vWnF6akJ2MnJXZkJPMldmeEFNSzRnOTNOSGZEWkdEMGdCM0VxbFAwYWZIY05IQjBiRWR5bTgzT3l5M3U4cUtldXJ6anhnVHdJL08zei9OU2lsZis5d1pOQ2ljd1BidGdzaXhvVU5FWmxHNFdaVnF3UzNzK01EdHJUNnRwM1MyQm51SjRFV0xVVURpN1h5QjNTa2l1ZUFvQkYrc09nQk9yUC82b0R1YTN4T2djWHlJY3Y3SFhxeGZwMmpmZ21Td3RleDVUK0N6ZmFvLzRmdkkrRGYxcEp2SU9DOHpqN1d3VGYwWkNwdlE3SS9pVTN0K1MrMXM2TE9ndnNKeWwrRGNLWDFJSW8xdVRsSU9WblB2TlBhUncvczc2RHgvYmM2WWV5VlgvVlE3T3A4T2tobHdUZCtKUEY5MU1ldkhXbkIrUFQxTGYzeXhtTytmZ0h4TitDRjRIQVdkS3k0aGpKcGxoejNYNTc4TEE0aFdNanBTRVcyanQyRDJIeU1yLzg0ZXBGY2xyQ0o1QmgzYXZLR0hRUHJGc0h2ZnF6eWp4R285Unc2RDdiYy9wNlJZdmJJV0hGZjAvOEM5ZThndU56QklZV0JtaHpWNUdZeUZ2b2J2djkyNE9leFdFMHJYWWVOZnRIbDJocEVZZDRNNWUzMzZYOExrYlc5M0xid1doR3BtbWVIa2F3bzZyOFlHQTUwMWN5YWEvalVscE5lUWY2azd2b0JiQjBOaWR6VEhuNXZ1L3lYNGY4QnplSTVvNDFzOVJVQUFBQUFTVVZPUks1Q1lJST0iIGhlaWdodD0iMTMyIiB3aWR0aD0iMTI5Ii8+PC9kZWZzPjxnIHRyYW5zZm9ybT0idHJhbnNsYXRlKC03MDYgLTM3MykiIGNsaXAtcGF0aD0idXJsKCNjbGlwMCkiPjx1c2UgdHJhbnNmb3JtPSJ0cmFuc2xhdGUoNzA2IDM3MykiIGZpbGw9Im5vbmUiIHhsaW5rOmhyZWY9IiNpbWcxIiBoZWlnaHQ9IjEwMCUiIHdpZHRoPSIxMDAlIi8+PC9nPjwvc3ZnPg==;" vertex="1" parent="1">
          <mxGeometry x="535.3399999999999" y="180" width="29.32" height="30" as="geometry" />
        </mxCell>
      </root>
    </mxGraphModel>
  </diagram>
</mxfile>
